<?xml version="1.0" standalone="no"?><!DOCTYPE svg PUBLIC "-//W3C//DTD SVG 1.1//EN" "http://www.w3.org/Graphics/SVG/1.1/DTD/svg11.dtd"><svg t="1582200901789" class="icon" viewBox="0 0 1024 1024" version="1.1" xmlns="http://www.w3.org/2000/svg" p-id="3816" xmlns:xlink="http://www.w3.org/1999/xlink" width="200" height="200"><defs><style type="text/css"></style></defs><path d="M195.584 211.456h82.944v49.664l-1.024 47.616v52.736h-81.92zM195.584 435.712h83.968v49.664l-1.024 49.664v47.616h-82.944zM195.584 661.504h82.944v146.944h-82.944z" p-id="3817"></path><path d="M845.824 25.088h-668.16c-53.76 0-97.28 44.032-97.28 97.28V901.632c0 53.76 44.032 97.28 97.28 97.28h688.128c49.664 0 77.312-29.696 77.312-81.408V122.368c0-53.76-44.032-97.28-97.28-97.28zM145.408 901.632V122.368c0-17.92 14.848-32.256 32.256-32.256h668.16c17.92 0 32.256 14.848 32.256 32.256v792.576c0 13.824-9.216 18.944-25.088 18.944h-675.84c-17.408 0-31.744-14.336-31.744-32.256z" p-id="3818"></path><path d="M791.04 253.952h-512c-16.896 0-30.72 13.824-30.72 30.72s13.824 30.72 30.72 30.72h512c16.896 0 30.72-13.824 30.72-30.72s-13.824-30.72-30.72-30.72zM791.04 481.28h-512c-16.896 0-30.72 13.824-30.72 30.72s13.824 30.72 30.72 30.72h512c16.896 0 30.72-13.824 30.72-30.72s-13.824-30.72-30.72-30.72zM791.04 704h-512c-16.896 0-30.72 13.824-30.72 30.72s13.824 30.72 30.72 30.72h512c16.896 0 30.72-13.824 30.72-30.72s-13.824-30.72-30.72-30.72z" p-id="3819"></path></svg>